<?xml version="1.0" standalone="no"?>
<!DOCTYPE svg PUBLIC "-//W3C//DTD SVG 20010904//EN"
 "http://www.w3.org/TR/2001/REC-SVG-20010904/DTD/svg10.dtd">
<svg version="1.0" xmlns="http://www.w3.org/2000/svg"
 width="500.000000pt" height="500.000000pt" viewBox="0 0 500.000000 500.000000"
 preserveAspectRatio="xMidYMid meet">

<g transform="translate(0.000000,500.000000) scale(0.100000,-0.100000)"
fill="#000000" stroke="none">
<path d="M2382 3753 l-44 -4 6 -57 c3 -31 9 -88 12 -126 l7 -68 36 6 c20 3 42
6 49 6 6 0 12 7 12 15 0 10 -11 15 -35 15 -33 0 -35 2 -35 35 0 29 4 36 25 41
36 9 32 34 -5 34 -28 0 -30 3 -30 34 0 32 3 35 33 38 19 2 32 8 32 17 0 17 -7
18 -63 14z"/>
<path d="M2546 3678 c-4 -46 -9 -102 -12 -124 l-6 -42 39 -5 c54 -7 81 13 87
65 16 131 16 136 -2 156 -9 11 -36 23 -58 27 l-41 6 -7 -83z m80 28 c3 -7 1
-46 -3 -87 -7 -67 -10 -74 -31 -77 -23 -3 -23 -3 -17 75 4 43 8 84 10 91 6 16
34 15 41 -2z"/>
<path d="M2765 3678 c-8 -28 -20 -78 -27 -110 -15 -72 -6 -92 45 -96 43 -4 46
2 76 113 12 44 24 88 27 98 4 12 0 17 -13 17 -15 0 -22 -13 -33 -52 -28 -113
-41 -148 -55 -148 -26 0 -26 19 0 109 29 105 29 107 10 115 -11 4 -19 -8 -30
-46z"/>
<path d="M2037 3672 c-10 -2 -17 -7 -15 -11 2 -4 21 -57 42 -118 l39 -111 46
16 c56 18 53 16 46 34 -5 13 -12 14 -35 5 -16 -6 -31 -9 -33 -7 -2 3 -19 48
-38 100 -28 78 -37 95 -52 92z"/>
<path d="M2997 3639 c-22 -13 -87 -151 -87 -185 0 -29 41 -58 70 -49 31 10 56
53 41 68 -10 9 -16 7 -28 -10 -16 -24 -38 -30 -47 -14 -9 14 64 161 80 161 19
0 26 -17 15 -39 -8 -15 -7 -20 6 -25 20 -8 33 10 33 45 0 41 -48 68 -83 48z"/>
<path d="M1858 3588 c-14 -12 -12 -24 23 -118 22 -58 42 -111 44 -119 4 -10 8
-11 20 -1 11 9 12 17 5 31 -15 27 24 47 49 25 20 -18 48 -6 35 16 -23 39 -140
178 -150 178 -5 0 -17 -6 -26 -12z m102 -135 c0 -7 -4 -13 -10 -13 -5 0 -13 0
-17 -1 -6 0 -43 88 -43 101 0 11 69 -76 70 -87z"/>
<path d="M3130 3445 c-65 -65 -82 -87 -72 -97 9 -9 16 -8 29 5 26 23 57 4 48
-31 -4 -16 -1 -28 7 -33 19 -12 123 208 107 227 -6 8 -17 14 -23 14 -6 0 -49
-38 -96 -85z m52 -24 c-25 -45 -30 -50 -42 -36 -11 14 -8 22 25 55 21 22 40
38 42 36 2 -1 -10 -26 -25 -55z"/>
<path d="M1682 3467 c-29 -24 -38 -38 -31 -48 6 -11 11 -11 21 -1 6 6 15 12
19 12 3 0 35 -36 69 -80 59 -75 79 -89 87 -63 2 6 -25 46 -61 89 -56 68 -63
81 -50 91 16 11 12 33 -6 33 -4 0 -26 -15 -48 -33z"/>
<path d="M3355 3410 c-4 -6 -1 -18 6 -26 10 -13 0 -27 -66 -94 -65 -66 -76
-80 -61 -86 13 -5 36 12 91 66 64 64 76 72 90 60 12 -10 19 -10 27 -2 9 9 3
22 -27 52 -41 42 -50 46 -60 30z"/>
<path d="M1554 3349 c-7 -11 97 -123 149 -161 22 -16 31 -18 40 -9 9 9 -9 32
-78 96 -50 46 -93 84 -97 85 -4 0 -10 -5 -14 -11z"/>
<path d="M3415 3190 c-86 -66 -110 -96 -73 -94 23 2 190 134 185 147 -7 22
-24 14 -112 -53z"/>
<path d="M1449 3219 c-37 -37 -23 -68 60 -126 40 -29 83 -53 96 -53 39 0 70
54 47 86 -4 5 -24 23 -46 39 -37 28 -39 28 -52 10 -22 -30 -16 -40 22 -36 5 0
20 -8 33 -20 17 -16 20 -24 10 -35 -13 -16 -12 -16 -96 44 -35 24 -63 48 -63
53 0 16 27 21 48 10 29 -16 37 14 9 34 -29 20 -43 19 -68 -6z"/>
<path d="M3486 3087 c-44 -24 -82 -52 -86 -63 -10 -27 5 -62 34 -75 21 -10 34
-6 100 30 104 58 120 85 78 134 -22 25 -38 22 -126 -26z m109 -17 c0 -18 -132
-93 -152 -86 -25 10 -9 30 58 69 65 38 94 43 94 17z"/>
<path d="M1354 3055 c-8 -20 -16 -14 97 -74 104 -56 114 -58 123 -36 4 11 -23
29 -105 70 -91 46 -111 53 -115 40z"/>
<path d="M3573 2901 c-76 -26 -103 -40 -103 -53 0 -15 10 -13 85 12 47 16 85
27 85 26 0 -2 -34 -25 -75 -52 -41 -27 -75 -51 -75 -54 0 -3 4 -11 9 -19 7
-11 28 -7 112 23 57 20 110 39 116 41 7 2 10 11 7 19 -5 12 -14 12 -62 -5 -31
-11 -60 -18 -64 -17 -4 2 17 19 47 38 41 26 55 40 53 55 -4 28 -21 27 -135
-14z"/>
<path d="M1302 2912 c-27 -23 -46 -81 -29 -87 7 -3 59 -21 116 -40 114 -38
115 -38 127 23 8 40 -11 64 -64 80 -141 44 -130 42 -150 24z m99 -43 c74 -25
92 -38 79 -58 -7 -13 -20 -11 -85 9 -80 25 -90 32 -81 55 7 19 10 19 87 -6z"/>
<path d="M3300 2540 c-23 -23 -27 -92 -7 -126 7 -12 36 -43 65 -69 42 -38 52
-53 50 -74 -4 -35 -51 -38 -56 -3 -3 17 -10 22 -34 22 -28 0 -30 -2 -23 -27
10 -43 33 -73 58 -74 79 -4 110 18 110 79 0 50 -23 88 -79 131 -44 33 -62 67
-50 97 9 24 50 14 54 -14 3 -16 8 -22 19 -18 8 3 19 6 24 6 17 0 9 46 -11 68
-27 29 -92 30 -120 2z"/>
<path d="M3180 2523 c0 -10 7 -78 15 -152 11 -100 12 -137 4 -147 -13 -16 -19
-17 -39 -4 -10 6 -19 50 -30 157 l-15 148 -27 3 c-16 2 -28 -1 -28 -7 0 -61
35 -311 46 -328 31 -48 136 -33 150 22 5 21 -6 165 -22 283 -5 36 -10 42 -30
42 -16 0 -24 -6 -24 -17z"/>
<path d="M2905 2510 c-44 -17 -48 -33 -41 -156 8 -135 21 -183 57 -203 36 -20
94 -7 116 25 15 23 15 38 4 152 -8 69 -18 136 -23 148 -17 37 -69 53 -113 34z
m54 -49 c17 -11 42 -228 29 -253 -10 -21 -31 -23 -45 -5 -6 6 -16 63 -23 125
-9 88 -9 116 0 127 14 17 20 18 39 6z"/>
<path d="M2757 2493 c-3 -5 3 -87 14 -183 10 -96 19 -176 19 -177 0 -2 11 -3
25 -3 31 0 30 -5 9 208 -17 157 -18 162 -40 162 -13 0 -25 -3 -27 -7z"/>
<path d="M2630 2483 c-70 -7 -80 -12 -80 -38 0 -22 3 -24 30 -19 35 7 35 8 50
-156 13 -141 17 -160 33 -160 37 1 39 12 23 160 -20 183 -22 170 15 170 26 0
30 3 27 23 -3 23 -26 28 -98 20z"/>
<path d="M2386 2358 c-4 -57 -9 -143 -12 -192 -6 -81 -5 -88 11 -83 9 4 20 7
25 7 5 0 10 15 12 33 3 29 6 32 41 35 35 3 38 1 43 -27 6 -26 11 -31 36 -31
20 0 29 4 26 13 -3 6 -24 87 -49 180 l-44 167 -41 0 -42 0 -6 -102z m75 -50
c24 -93 24 -95 -6 -100 l-25 -5 0 95 c0 52 3 93 6 90 3 -4 14 -39 25 -80z"/>
<path d="M2169 2419 c-21 -21 -22 -28 -15 -133 11 -189 24 -216 101 -216 61 0
94 46 80 110 -5 24 -12 30 -32 30 -23 0 -25 -3 -21 -32 7 -45 1 -58 -27 -58
-29 0 -31 7 -46 144 -7 71 -8 111 -1 118 18 18 46 4 56 -30 7 -24 14 -32 32
-32 17 0 24 6 24 19 0 32 -22 81 -40 91 -33 18 -88 12 -111 -11z"/>
<path d="M2068 2423 c-22 -5 -22 -4 -3 -171 8 -74 12 -138 9 -143 -4 -8 -52
-13 -55 -6 -1 1 -8 70 -17 152 l-17 150 -27 3 c-18 2 -28 -1 -28 -10 0 -48 32
-288 41 -310 21 -51 105 -55 142 -6 19 25 19 32 8 140 -17 169 -23 208 -30
207 -3 -1 -14 -3 -23 -6z"/>
<path d="M1719 2385 c-3 -2 3 -75 12 -162 10 -87 18 -169 18 -182 1 -23 3 -24
59 -18 77 8 88 13 102 47 9 21 9 56 -1 149 -16 159 -24 171 -118 171 -37 0
-70 -2 -72 -5z m120 -69 c5 -13 13 -71 17 -128 l7 -105 -28 -7 c-15 -4 -29 -6
-30 -4 -4 4 -25 204 -25 238 0 25 4 30 25 30 18 0 28 -7 34 -24z"/>
<path d="M1577 2373 c-26 -2 -50 -10 -52 -16 -6 -16 29 -345 37 -353 4 -3 39
-3 77 1 67 7 71 8 71 32 0 25 -2 25 -50 21 -49 -5 -50 -5 -56 27 -11 61 -3 80
37 83 33 3 36 5 31 28 -4 23 -9 25 -43 22 -30 -3 -39 0 -39 12 0 8 -3 32 -6
52 l-6 37 51 7 c45 6 51 9 51 30 0 26 5 25 -103 17z"/>
<path d="M1817 1624 l-79 -95 39 -34 c29 -25 41 -30 52 -22 11 9 8 15 -14 34
l-26 23 23 29 c22 26 26 27 46 13 31 -21 50 -2 22 23 -19 18 -19 18 1 46 l21
29 27 -19 c20 -15 31 -17 39 -9 8 8 -1 20 -30 44 -22 19 -41 34 -41 33 -1 0
-37 -43 -80 -95z"/>
<path d="M3067 1682 c-29 -32 -17 -89 16 -76 13 5 14 9 4 25 -9 14 -9 21 1 31
10 10 17 8 34 -10 19 -19 21 -25 11 -42 -15 -23 -1 -36 34 -32 24 4 55 -32 46
-54 -7 -18 -30 -18 -40 1 -11 19 -38 2 -30 -19 8 -20 55 -32 75 -19 46 28 39
84 -15 118 -18 11 -32 27 -33 36 0 24 -38 59 -64 59 -13 0 -30 -8 -39 -18z"/>
<path d="M1994 1585 c-13 -20 -15 -38 -9 -95 6 -58 4 -71 -9 -76 -24 -9 -38 4
-26 27 9 15 7 21 -6 26 -38 14 -47 -58 -9 -83 31 -20 53 -15 78 19 19 25 20
32 9 82 -13 64 -8 85 20 85 16 0 19 -5 15 -21 -7 -24 21 -39 34 -18 14 22 11
37 -11 59 -28 28 -66 26 -86 -5z"/>
<path d="M2924 1585 c-25 -25 -26 -55 -4 -79 14 -15 30 4 24 29 -7 28 11 41
33 24 13 -11 14 -27 9 -87 -5 -64 0 -97 20 -120 4 -6 94 49 94 57 0 18 -14 19
-42 5 -42 -22 -51 -8 -37 54 12 60 -1 116 -31 132 -28 15 -38 12 -66 -15z"/>
<path d="M2147 1543 c-12 -11 -8 -21 12 -28 19 -6 18 -11 -16 -106 -20 -55
-33 -102 -30 -105 13 -14 36 7 47 43 40 122 51 143 76 143 40 0 27 25 -23 43
-54 19 -57 20 -66 10z"/>
<path d="M2756 1514 c-9 -8 -16 -23 -16 -33 0 -35 50 -166 70 -183 33 -27 90
-4 90 36 0 28 -46 164 -61 182 -15 19 -64 18 -83 -2z m81 -79 c27 -75 30 -118
6 -113 -10 2 -25 28 -40 72 -28 85 -29 109 -5 104 11 -2 25 -25 39 -63z"/>
<path d="M2287 1388 c-9 -62 -17 -119 -17 -126 0 -16 94 -16 108 1 12 15 32
117 32 168 0 44 -13 56 -66 65 l-40 6 -17 -114z m87 63 c5 -8 -9 -118 -20
-153 -6 -20 -44 -25 -44 -6 0 15 20 139 25 156 5 14 31 16 39 3z"/>
<path d="M2592 1478 c-19 -24 -19 -82 0 -76 7 3 15 15 18 29 9 36 34 30 38 -9
2 -24 -5 -46 -22 -73 -16 -23 -26 -53 -26 -74 0 -38 11 -42 79 -29 46 10 40
34 -9 34 -22 0 -40 3 -40 8 0 4 14 30 30 57 48 81 37 145 -24 145 -19 0 -38
-6 -44 -12z"/>
</g>
</svg>
